<svg width="40" height="40" viewBox="0 0 40 40" fill="none" xmlns="http://www.w3.org/2000/svg">
<rect width="40" height="40" rx="20" fill="#EBEBEB"/>
<path d="M6.788 28.46C5.988 28.46 5.348 28.252 4.868 27.836C4.388 27.42 4.148 26.796 4.148 25.964C4.148 25.5587 4.17467 25.196 4.228 24.876C4.292 24.556 4.35067 24.2253 4.404 23.884C4.468 23.5427 4.5 23.148 4.5 22.7C4.5 22.284 4.37733 21.9373 4.132 21.66C3.89733 21.3827 3.49733 21.244 2.932 21.244H2.212V19.74H2.932C3.49733 19.74 3.89733 19.6013 4.132 19.324C4.37733 19.0467 4.5 18.7 4.5 18.284C4.5 17.8253 4.468 17.4307 4.404 17.1C4.35067 16.7587 4.292 16.428 4.228 16.108C4.17467 15.7773 4.148 15.4093 4.148 15.004C4.148 14.1827 4.388 13.564 4.868 13.148C5.348 12.732 5.988 12.524 6.788 12.524H8.42V14.012H7.044C6.628 14.012 6.31333 14.108 6.1 14.3C5.89733 14.492 5.796 14.8067 5.796 15.244C5.796 15.596 5.82267 15.9213 5.876 16.22C5.92933 16.5187 5.98267 16.828 6.036 17.148C6.08933 17.468 6.116 17.8413 6.116 18.268C6.116 18.8333 5.99333 19.308 5.748 19.692C5.51333 20.0653 5.19333 20.316 4.788 20.444V20.54C5.19333 20.668 5.51333 20.924 5.748 21.308C5.99333 21.6813 6.116 22.1507 6.116 22.716C6.116 23.1427 6.08933 23.516 6.036 23.836C5.98267 24.156 5.92933 24.4653 5.876 24.764C5.82267 25.052 5.796 25.3773 5.796 25.74C5.796 26.1667 5.89733 26.476 6.1 26.668C6.31333 26.8707 6.628 26.972 7.044 26.972H8.42V28.46H6.788ZM14.9578 25.692C13.9124 25.692 13.0804 25.4467 12.4618 24.956C11.8431 24.4653 11.4911 23.8147 11.4058 23.004H13.1498C13.2138 23.3773 13.4004 23.6813 13.7098 23.916C14.0298 24.1507 14.4511 24.268 14.9738 24.268C15.4751 24.268 15.8591 24.1667 16.1258 23.964C16.4031 23.7507 16.5418 23.5053 16.5418 23.228C16.5418 22.8227 16.3764 22.5453 16.0458 22.396C15.7258 22.2467 15.2511 22.1347 14.6218 22.06C14.0778 21.996 13.5818 21.8733 13.1338 21.692C12.6964 21.5 12.3498 21.244 12.0938 20.924C11.8378 20.5933 11.7098 20.1827 11.7098 19.692C11.7098 18.9987 11.9818 18.4387 12.5258 18.012C13.0698 17.5853 13.8271 17.372 14.7977 17.372C15.7684 17.372 16.5204 17.5907 17.0538 18.028C17.5871 18.4653 17.8964 19.0627 17.9818 19.82H16.3498C16.3071 19.5 16.1418 19.2493 15.8538 19.068C15.5658 18.876 15.2084 18.78 14.7818 18.78C14.3444 18.78 13.9978 18.8653 13.7418 19.036C13.4858 19.196 13.3578 19.4093 13.3578 19.676C13.3578 20.252 13.9764 20.604 15.2138 20.732C15.8004 20.796 16.3231 20.908 16.7818 21.068C17.2404 21.2173 17.6031 21.4573 17.8698 21.788C18.1364 22.108 18.2698 22.5613 18.2698 23.148C18.2804 23.628 18.1418 24.06 17.8538 24.444C17.5764 24.828 17.1871 25.132 16.6858 25.356C16.1951 25.58 15.6191 25.692 14.9578 25.692ZM21.2555 25.5V13.98H22.9515V20.892L25.9915 17.564H28.1195L24.8075 21.084V21.212L28.5515 25.5H26.4875L22.9515 21.42V25.5H21.2555ZM30.9613 28.46V26.972H32.3373C32.7533 26.972 33.0626 26.8707 33.2653 26.668C33.4786 26.476 33.5853 26.1667 33.5853 25.74C33.5853 25.3773 33.5586 25.052 33.5052 24.764C33.4519 24.4653 33.3986 24.156 33.3453 23.836C33.2919 23.516 33.2653 23.1427 33.2653 22.716C33.2653 22.1507 33.3879 21.6813 33.6333 21.308C33.8786 20.924 34.1986 20.668 34.5933 20.54V20.444C34.1986 20.316 33.8786 20.0653 33.6333 19.692C33.3879 19.308 33.2653 18.8333 33.2653 18.268C33.2653 17.8413 33.2919 17.468 33.3453 17.148C33.3986 16.828 33.4519 16.5187 33.5052 16.22C33.5586 15.9213 33.5853 15.596 33.5853 15.244C33.5853 14.8067 33.4786 14.492 33.2653 14.3C33.0626 14.108 32.7533 14.012 32.3373 14.012H30.9613V12.524H32.5933C33.3933 12.524 34.0333 12.732 34.5133 13.148C34.9933 13.564 35.2333 14.1827 35.2333 15.004C35.2333 15.4093 35.2013 15.7773 35.1373 16.108C35.0839 16.428 35.0253 16.7587 34.9613 17.1C34.9079 17.4307 34.8813 17.8253 34.8813 18.284C34.8813 18.7 34.9986 19.0467 35.2333 19.324C35.4786 19.6013 35.8839 19.74 36.4493 19.74H37.1693V21.244H36.4493C35.8839 21.244 35.4786 21.3827 35.2333 21.66C34.9986 21.9373 34.8813 22.284 34.8813 22.7C34.8813 23.148 34.9079 23.5427 34.9613 23.884C35.0253 24.2253 35.0839 24.556 35.1373 24.876C35.2013 25.196 35.2333 25.5587 35.2333 25.964C35.2333 26.796 34.9933 27.42 34.5133 27.836C34.0333 28.252 33.3933 28.46 32.5933 28.46H30.9613Z" fill="black"/>
</svg>
