<svg width="28" height="28" viewBox="0 0 28 28" fill="none" xmlns="http://www.w3.org/2000/svg">
<path d="M5.36364 24C5 24 4.68182 23.8571 4.40909 23.5714C4.13636 23.2857 4 22.9524 4 22.5714V11.6429H5.36364V22.5714H19.2045V24H5.36364ZM8.09091 21.1429C7.72727 21.1429 7.40909 21 7.13636 20.7143C6.86364 20.4286 6.72727 20.0952 6.72727 19.7143V7.38095H12.2273V5.42857C12.2273 5.04762 12.3636 4.71429 12.6364 4.42857C12.9091 4.14286 13.2273 4 13.5909 4H17.1364C17.5 4 17.8182 4.14286 18.0909 4.42857C18.3636 4.71429 18.5 5.04762 18.5 5.42857V7.38095H24V19.7143C24 20.0952 23.8636 20.4286 23.5909 20.7143C23.3182 21 23 21.1429 22.6364 21.1429H8.09091ZM8.09091 19.7143H22.6364V8.80952H8.09091V19.7143ZM13.5909 7.38095H17.1364V5.42857H13.5909V7.38095Z" fill="#858585"/>
</svg>
