<svg width="25" height="24" viewBox="0 0 25 24" fill="none" xmlns="http://www.w3.org/2000/svg">
<path d="M12.6667 11.9751C11.5667 11.9751 10.6667 11.6251 9.96675 10.9251C9.26675 10.2251 8.91675 9.3251 8.91675 8.2251C8.91675 7.1251 9.26675 6.2251 9.96675 5.5251C10.6667 4.8251 11.5667 4.4751 12.6667 4.4751C13.7667 4.4751 14.6667 4.8251 15.3667 5.5251C16.0667 6.2251 16.4167 7.1251 16.4167 8.2251C16.4167 9.3251 16.0667 10.2251 15.3667 10.9251C14.6667 11.6251 13.7667 11.9751 12.6667 11.9751ZM4.66675 20.0001V17.6501C4.66675 17.0168 4.82508 16.4751 5.14175 16.0251C5.45841 15.5751 5.86675 15.2334 6.36675 15.0001C7.48341 14.5001 8.55425 14.1251 9.57925 13.8751C10.6042 13.6251 11.6334 13.5001 12.6667 13.5001C13.7001 13.5001 14.7251 13.6293 15.7417 13.8876C16.7584 14.1459 17.8244 14.5184 18.9398 15.0049C19.4615 15.2404 19.8797 15.5818 20.1945 16.0291C20.5093 16.4764 20.6667 17.0168 20.6667 17.6501V20.0001H4.66675ZM6.16675 18.5001H19.1667V17.6501C19.1667 17.3834 19.0876 17.1293 18.9292 16.8876C18.7709 16.6459 18.5751 16.4668 18.3417 16.3501C17.2751 15.8334 16.3001 15.4793 15.4167 15.2876C14.5334 15.0959 13.6167 15.0001 12.6667 15.0001C11.7167 15.0001 10.7917 15.0959 9.89175 15.2876C8.99175 15.4793 8.01675 15.8334 6.96675 16.3501C6.73341 16.4668 6.54175 16.6459 6.39175 16.8876C6.24175 17.1293 6.16675 17.3834 6.16675 17.6501V18.5001ZM12.6667 10.4751C13.3167 10.4751 13.8542 10.2626 14.2792 9.8376C14.7042 9.4126 14.9167 8.8751 14.9167 8.2251C14.9167 7.5751 14.7042 7.0376 14.2792 6.6126C13.8542 6.1876 13.3167 5.9751 12.6667 5.9751C12.0167 5.9751 11.4792 6.1876 11.0542 6.6126C10.6292 7.0376 10.4167 7.5751 10.4167 8.2251C10.4167 8.8751 10.6292 9.4126 11.0542 9.8376C11.4792 10.2626 12.0167 10.4751 12.6667 10.4751Z" fill="#858585"/>
</svg>
