<svg width="25" height="24" viewBox="0 0 25 24" fill="none" xmlns="http://www.w3.org/2000/svg">
<path d="M7.98337 14.15C7.70004 14.15 7.46254 14.0542 7.27087 13.8625C7.07921 13.6708 6.98337 13.4333 6.98337 13.15C6.98337 12.8667 7.07921 12.6292 7.27087 12.4375C7.46254 12.2458 7.70004 12.15 7.98337 12.15C8.26671 12.15 8.50421 12.2458 8.69587 12.4375C8.88754 12.6292 8.98337 12.8667 8.98337 13.15C8.98337 13.4333 8.88754 13.6708 8.69587 13.8625C8.50421 14.0542 8.26671 14.15 7.98337 14.15ZM12.4084 14.15C12.125 14.15 11.8875 14.0542 11.6959 13.8625C11.5042 13.6708 11.4084 13.4333 11.4084 13.15C11.4084 12.8667 11.5042 12.6292 11.6959 12.4375C11.8875 12.2458 12.125 12.15 12.4084 12.15C12.6917 12.15 12.9292 12.2458 13.1209 12.4375C13.3125 12.6292 13.4084 12.8667 13.4084 13.15C13.4084 13.4333 13.3125 13.6708 13.1209 13.8625C12.9292 14.0542 12.6917 14.15 12.4084 14.15ZM16.6584 14.15C16.375 14.15 16.1375 14.0542 15.9459 13.8625C15.7542 13.6708 15.6584 13.4333 15.6584 13.15C15.6584 12.8667 15.7542 12.6292 15.9459 12.4375C16.1375 12.2458 16.375 12.15 16.6584 12.15C16.9417 12.15 17.1792 12.2458 17.3709 12.4375C17.5625 12.6292 17.6584 12.8667 17.6584 13.15C17.6584 13.4333 17.5625 13.6708 17.3709 13.8625C17.1792 14.0542 16.9417 14.15 16.6584 14.15ZM4.83337 22C4.43337 22 4.08337 21.85 3.78337 21.55C3.48337 21.25 3.33337 20.9 3.33337 20.5V5C3.33337 4.6 3.48337 4.25 3.78337 3.95C4.08337 3.65 4.43337 3.5 4.83337 3.5H6.45837V2H8.08337V3.5H16.5834V2H18.2084V3.5H19.8334C20.2334 3.5 20.5834 3.65 20.8834 3.95C21.1834 4.25 21.3334 4.6 21.3334 5V20.5C21.3334 20.9 21.1834 21.25 20.8834 21.55C20.5834 21.85 20.2334 22 19.8334 22H4.83337ZM4.83337 20.5H19.8334V9.75H4.83337V20.5ZM4.83337 8.25H19.8334V5H4.83337V8.25Z" fill="#858585"/>
</svg>
