<svg width="24" height="24" viewBox="0 0 24 24" fill="none" xmlns="http://www.w3.org/2000/svg">
<path d="M19.2 21.0001L12.925 14.7251L14.35 13.3001L20.625 19.5751L19.2 21.0001ZM4.675 21.0001L3.25 19.5751L10.5 12.3251L7.825 9.6501L7.25 10.2251L6.15 9.1251V11.2501L5.55 11.8501L2.5 8.8001L3.1 8.2001H5.25L4.05 7.0001L7.325 3.7251C7.60833 3.44176 7.91667 3.2501 8.25 3.1501C8.58333 3.0501 8.95 3.0001 9.35 3.0001C9.75 3.0001 10.1167 3.07093 10.45 3.2126C10.7833 3.35426 11.0917 3.56676 11.375 3.8501L8.7 6.5251L9.9 7.7251L9.3 8.3251L11.9 10.9251L14.95 7.8751C14.8167 7.65843 14.7125 7.40843 14.6375 7.1251C14.5625 6.84176 14.525 6.54176 14.525 6.2251C14.525 5.34176 14.8458 4.57926 15.4875 3.9376C16.1292 3.29593 16.8917 2.9751 17.775 2.9751C18.025 2.9751 18.2375 3.0001 18.4125 3.0501C18.5875 3.1001 18.7333 3.16676 18.85 3.2501L16.725 5.3751L18.6 7.2501L20.725 5.1251C20.8083 5.25843 20.8792 5.42093 20.9375 5.6126C20.9958 5.80426 21.025 6.0251 21.025 6.2751C21.025 7.15843 20.7042 7.92093 20.0625 8.5626C19.4208 9.20426 18.6583 9.5251 17.775 9.5251C17.475 9.5251 17.2167 9.50426 17 9.4626C16.7833 9.42093 16.5833 9.35843 16.4 9.2751L4.675 21.0001Z" fill="#858585"/>
</svg>
